<svg width="308" height="95" viewBox="0 0 308 95" fill="none" xmlns="http://www.w3.org/2000/svg">
<g filter="url(#filter0_dd)">
<circle cx="281.5" cy="35.5" r="6.5" fill="#EBF2FA"/>
</g>
<path d="M49.6666 35.617C51.5197 33.7639 51.4366 30.689 49.4805 28.7329C47.9369 27.1893 48.4188 25.0813 49.3565 24.1436C46.8919 23.733 44.2201 24.5665 42.5344 26.2522C40.0673 28.7193 40.1783 32.8268 42.7825 35.431C44.7386 37.3871 47.8134 37.4701 49.6666 35.617ZM45.4027 61.9632L48.4776 62.0463C48.6901 62.0523 48.8994 62.0163 49.0936 61.9403C49.2878 61.8644 49.463 61.7501 49.6092 61.6039C49.7554 61.4577 49.8697 61.2825 49.9457 61.0883C50.0216 60.8941 50.0576 60.6848 50.0516 60.4723L49.496 39.9118L43.1856 39.7413L43.7412 60.3017C43.7467 60.5142 43.7941 60.7258 43.8806 60.9244C43.9672 61.123 44.0912 61.3046 44.2455 61.4589C44.3998 61.6133 44.5815 61.7372 44.78 61.8238C44.9786 61.9103 45.1902 61.9577 45.4027 61.9632V61.9632Z" fill="#D5668A"/>
<g filter="url(#filter1_dd)">
<path d="M280.875 53.0312C284.729 53.0312 286.656 55.2292 286.656 59.625C286.656 64.7292 284.958 69.1042 281.562 72.75C280.646 73.75 279.844 74.4167 279.156 74.75C278.385 74.75 277.688 74.3646 277.062 73.5938C276.875 73.3646 276.781 73.125 276.781 72.875C276.906 72.6875 277.135 72.3646 277.469 71.9062C277.823 71.4479 278.188 70.875 278.562 70.1875C279.479 68.3958 279.938 66.5417 279.938 64.625C279.938 62.0417 278.677 60.6562 276.156 60.4688C275.865 59.7812 275.719 59.0729 275.719 58.3438C275.719 57.5938 275.833 56.9167 276.062 56.3125C276.312 55.6875 276.667 55.1354 277.125 54.6562C278.125 53.5729 279.375 53.0312 280.875 53.0312Z" fill="#EBF2FA"/>
</g>
<path d="M2.84766 58.4932C2.84766 58.4932 7.33887 52.332 16.3213 40.0098C19.5557 35.4395 21.7441 32.2754 22.8867 30.5176L26.1562 25.3232L15.1875 25.7188C13.9395 25.7715 12.9287 25.8682 12.1553 26.0088C11.3818 26.1318 10.7754 26.3867 10.3359 26.7734C9.58008 27.4238 9.09668 28.9355 8.88574 31.3086C8.88574 31.6602 8.47266 31.9326 7.64648 32.126C7.43555 32.1787 7.16309 32.2051 6.8291 32.2051C6.49512 32.2051 6.23145 32.0469 6.03809 31.7305C5.8623 31.4141 5.69531 30.9834 5.53711 30.4385C5.39648 29.876 5.28223 29.2959 5.19434 28.6982C5.01855 27.5029 4.93066 26.4746 4.93066 25.6133C4.93066 24.7344 4.96582 24.04 5.03613 23.5303C5.10645 23.0029 5.23828 22.5986 5.43164 22.3174C5.76562 21.8252 6.47754 21.5791 7.56738 21.5791H31.667C32.3174 21.5791 32.9941 21.9834 33.6973 22.792C34.3828 23.583 34.6201 24.207 34.4092 24.6641L10.8896 58.1504L24.5479 57.623C26.9385 57.5176 28.5645 56.9551 29.4258 55.9355C30.1641 55.0566 30.6475 53.334 30.876 50.7676C30.8936 50.5918 31.0781 50.4248 31.4297 50.2666C31.7988 50.1084 32.2119 50.0293 32.6689 50.0293C33.1436 50.0293 33.4688 50.1963 33.6445 50.5303C33.8379 50.8643 34.0049 51.3477 34.1455 51.9805C34.3037 52.6133 34.4355 53.2725 34.541 53.958C34.752 55.3291 34.8574 56.5156 34.8574 57.5176C34.8574 58.502 34.7256 59.2842 34.4619 59.8643C34.1982 60.4443 33.8027 60.8926 33.2754 61.209C32.3965 61.7363 30.8584 62 28.6611 62H5.37891C4.67578 62 4.00781 61.5078 3.375 60.5234C2.74219 59.5742 2.56641 58.8975 2.84766 58.4932ZM72.2208 62.1318C71.8692 62.0439 71.3067 62 70.5333 62H62.1221C60.4346 62 59.3536 61.7012 58.879 61.1035C58.6856 60.875 58.5889 60.6113 58.5889 60.3125C58.5889 59.5742 58.7296 59.0293 59.0108 58.6777C59.4327 58.8184 59.9073 58.8887 60.4346 58.8887C60.9796 58.8887 61.3839 58.6689 61.6475 58.2295C61.9288 57.79 62.0606 56.9727 62.043 55.7773V38.5332C62.043 36.8809 61.7354 35.8525 61.1202 35.4482C60.8741 35.29 60.5489 35.2109 60.1446 35.2109C59.7403 35.2109 59.4151 35.2725 59.169 35.3955C58.9405 35.5186 58.7471 35.6064 58.5889 35.6592C58.4483 35.7119 58.3253 35.7119 58.2198 35.6592C58.1143 35.5889 58.0089 35.4922 57.9034 35.3691C57.6397 35.0879 57.5079 34.7979 57.5079 34.499C57.5079 34.1826 57.6134 33.8574 57.8243 33.5234C58.0528 33.1719 58.4132 32.7764 58.9053 32.3369C59.3975 31.8799 59.96 31.4668 60.5928 31.0977C62.0167 30.2715 63.4405 29.8584 64.8643 29.8584C66.4991 29.8584 67.4659 30.9395 67.7647 33.1016C67.8526 33.7344 67.9053 34.3848 67.9229 35.0527C70.5421 32.8555 73.3897 31.291 76.4659 30.3594C77.5733 30.0254 78.6895 29.8584 79.8145 29.8584C80.9571 29.8584 82.0382 30.0078 83.0577 30.3066C84.0948 30.6055 84.9913 31.0889 85.7471 31.7568C87.3468 33.1631 88.1466 35.3604 88.1466 38.3486V56.2256C88.1993 57.5967 88.7091 58.4404 89.6759 58.7568C89.9395 58.8447 90.2647 58.9238 90.6514 58.9941C91.0382 59.0645 91.3809 59.1523 91.6798 59.2578C91.9962 59.3457 92.2423 59.4512 92.418 59.5742C92.7169 59.8027 92.8663 60.1719 92.8663 60.6816C92.8663 61.2969 92.7257 61.7803 92.4444 62.1318C92.0928 62.0439 91.5303 62 90.7569 62H82.3458C80.6583 62 79.5772 61.7012 79.1026 61.1035C78.9093 60.875 78.8126 60.6113 78.8126 60.3125C78.8126 59.5742 78.9532 59.0293 79.2345 58.6777C79.6563 58.8184 80.043 58.8887 80.3946 58.8887C80.7637 58.8887 81.0714 58.8447 81.3175 58.7568C81.5636 58.6514 81.7569 58.4844 81.8975 58.2559C82.1436 57.834 82.2667 57.0078 82.2667 55.7773V40.2207C82.2667 37.2324 81.379 35.5625 79.6036 35.2109C79.0587 35.1055 78.3731 35.0527 77.547 35.0527C76.7384 35.0527 75.8419 35.1758 74.8575 35.4219C73.8731 35.668 72.9503 35.9844 72.0889 36.3711C70.4366 37.1094 69.0479 38.041 67.9229 39.166V56.2256C67.9757 57.5967 68.4766 58.4404 69.4259 58.7568C69.7071 58.8447 70.0323 58.9238 70.4014 58.9941C70.7882 59.0645 71.1397 59.1523 71.4561 59.2578C71.7725 59.3457 72.0186 59.4512 72.1944 59.5742C72.4932 59.8027 72.6427 60.1719 72.6427 60.6816C72.6427 61.2969 72.502 61.7803 72.2208 62.1318ZM96.0704 47.4453C96.0704 45.3008 96.2814 43.376 96.7032 41.6709C97.1251 39.9658 97.7052 38.4629 98.4435 37.1621C99.1818 35.8613 100.052 34.7539 101.054 33.8398C102.056 32.9082 103.128 32.1523 104.271 31.5723C106.503 30.4297 108.955 29.8584 111.627 29.8584C115.055 29.8584 117.964 31.1064 120.355 33.6025C123.009 36.3447 124.336 39.9658 124.336 44.4658C124.336 50.3721 122.728 54.9688 119.511 58.2559C116.716 61.0859 113.367 62.501 109.465 62.501C105.387 62.501 102.117 61.0684 99.6564 58.2031C97.2657 55.4434 96.0704 51.8574 96.0704 47.4453ZM111.021 58.2031C112.198 58.2031 113.253 57.9307 114.185 57.3857C115.116 56.8232 115.907 56.0586 116.558 55.0918C117.859 53.0879 118.509 50.4863 118.509 47.2871C118.509 43.7715 117.823 40.7832 116.452 38.3223C114.905 35.4922 112.682 34.0771 109.781 34.0771C107.443 34.0771 105.571 34.9736 104.165 36.7666C102.671 38.665 101.924 41.3193 101.924 44.7295C101.924 49.001 102.864 52.376 104.745 54.8545C106.433 57.0869 108.525 58.2031 111.021 58.2031ZM156.412 32.9961C156.483 32.5039 156.518 31.7832 156.518 30.834C156.518 29.8848 156.333 29.0234 155.964 28.25C155.595 27.459 155.094 26.8438 154.461 26.4043C153.354 25.6484 151.684 25.2705 149.451 25.2705C147.236 25.2705 145.277 25.6748 143.571 26.4834C141.884 27.2744 140.469 28.3906 139.326 29.832C137.024 32.7324 135.872 36.6787 135.872 41.6709C135.872 46.3994 137.041 50.1699 139.379 52.9824C141.805 55.918 145.083 57.3857 149.214 57.3857C153.275 57.3857 156.439 56.498 158.706 54.7227C159.392 54.1953 160.016 53.624 160.578 53.0088C161.106 53.167 161.536 53.6328 161.87 54.4062C161.976 54.6699 162.028 55.0215 162.028 55.4609C162.028 55.8828 161.712 56.5156 161.079 57.3594C160.464 58.1855 159.559 58.9854 158.363 59.7588C155.516 61.6221 152.106 62.5537 148.133 62.5537C142.438 62.5537 137.902 60.8223 134.527 57.3594C131.188 53.9668 129.518 49.4229 129.518 43.7275C129.518 40.2471 130.071 37.1094 131.179 34.3145C132.286 31.5195 133.798 29.1465 135.714 27.1953C137.63 25.2266 139.862 23.7148 142.411 22.6602C144.978 21.6055 147.465 21.0781 149.873 21.0781C152.299 21.0781 154.241 21.2803 155.7 21.6846C157.159 22.0889 158.372 22.6426 159.339 23.3457C161.273 24.7871 162.239 26.7031 162.239 29.0938C162.239 30.9219 161.563 32.2139 160.209 32.9697C159.752 33.2334 159.26 33.3652 158.733 33.3652C157.643 33.3652 156.869 33.2422 156.412 32.9961ZM181.475 62.1318C181.123 62.0439 180.561 62 179.787 62H171.376C169.689 62 168.608 61.7012 168.133 61.1035C167.94 60.875 167.843 60.6113 167.843 60.3125C167.843 59.5742 167.984 59.0293 168.265 58.6777C168.687 58.8184 169.17 58.8887 169.715 58.8887C170.26 58.8887 170.664 58.6689 170.928 58.2295C171.192 57.79 171.315 56.9727 171.297 55.7773V23.1084C171.297 21.8955 171.174 21.1133 170.928 20.7617C170.559 20.1992 169.908 19.918 168.977 19.918H168.449C168.291 19.918 168.107 19.9443 167.896 19.9971C167.702 20.0322 167.535 20.0146 167.395 19.9443C167.254 19.8564 167.131 19.7422 167.026 19.6016C166.656 19.0566 167.078 18.3184 168.291 17.3867C170.067 16.0332 171.877 15.3564 173.723 15.3564C175.727 15.3564 176.852 16.4375 177.098 18.5996C177.168 19.25 177.203 19.9355 177.203 20.6562V35.0264C179.858 32.7939 182.696 31.2383 185.72 30.3594C186.827 30.0254 187.944 29.8584 189.069 29.8584C190.211 29.8584 191.292 30.0078 192.312 30.3066C193.349 30.6055 194.237 31.0889 194.975 31.7568C196.592 33.1982 197.401 35.3955 197.401 38.3486V56.041C197.401 57.5 197.893 58.3965 198.877 58.7305C199.158 58.8359 199.492 58.9238 199.879 58.9941C200.266 59.0645 200.609 59.1523 200.907 59.2578C201.224 59.3457 201.47 59.4512 201.646 59.5742C201.945 59.8027 202.094 60.1719 202.094 60.6816C202.094 61.3145 201.962 61.7979 201.698 62.1318C201.329 62.0439 200.767 62 200.011 62H191.6C189.912 62 188.831 61.7012 188.357 61.1035C188.163 60.875 188.067 60.6113 188.067 60.3125C188.067 59.5566 188.198 59.0117 188.462 58.6777C188.902 58.8184 189.376 58.8887 189.886 58.8887C190.396 58.8887 190.782 58.7041 191.046 58.335C191.327 57.9658 191.486 57.2891 191.521 56.3047V40.2207C191.521 37.2324 190.633 35.5625 188.858 35.2109C188.313 35.1055 187.627 35.0527 186.801 35.0527C185.992 35.0527 185.096 35.1758 184.112 35.4219C183.145 35.668 182.231 35.9844 181.369 36.3711C179.664 37.1445 178.276 38.0674 177.203 39.1396V56.041C177.203 57.5 177.696 58.3965 178.68 58.7305C178.961 58.8359 179.295 58.9238 179.682 58.9941C180.069 59.0645 180.411 59.1523 180.71 59.2578C181.027 59.3457 181.273 59.4512 181.448 59.5742C181.747 59.8027 181.897 60.1719 181.897 60.6816C181.897 61.2969 181.756 61.7803 181.475 62.1318ZM223.808 58.6514C221.241 61.2178 218.139 62.501 214.5 62.501C211.688 62.501 209.438 61.6924 207.75 60.0752C206.045 58.4404 205.193 56.3223 205.193 53.7207C205.193 50.4863 206.634 48.0605 209.517 46.4434C212.118 44.9668 215.783 44.2285 220.512 44.2285H223.808C223.825 43.5605 223.834 42.9102 223.834 42.2773V40.2998C223.834 37.9443 223.491 36.2832 222.806 35.3164C222.032 34.2266 220.714 33.6816 218.851 33.6816C214.579 33.6816 212.382 35.2109 212.259 38.2695C212.241 38.7441 212.25 39.1396 212.285 39.4561C211.934 39.7373 211.336 39.8779 210.492 39.8779C209.666 39.8779 209.06 39.7812 208.673 39.5879C208.304 39.3945 207.979 39.1309 207.697 38.7969C207.1 38.1113 206.801 37.2412 206.801 36.1865C206.801 35.1143 207.109 34.1826 207.724 33.3916C208.357 32.583 209.209 31.9238 210.281 31.4141C212.373 30.377 214.843 29.8584 217.691 29.8584C220.538 29.8584 222.674 30.1396 224.098 30.7021C225.539 31.2471 226.682 31.9766 227.526 32.8906C229.02 34.5078 229.767 36.6787 229.767 39.4033L229.503 52.0596C229.503 54.3623 229.609 55.8213 229.82 56.4365C230.048 57.0518 230.312 57.4648 230.611 57.6758C230.927 57.8867 231.305 57.9922 231.744 57.9922C232.201 57.9922 232.571 57.9219 232.852 57.7812L233.59 57.4385C233.836 57.3506 234.047 57.4561 234.223 57.7549C234.416 58.0361 234.513 58.291 234.513 58.5195C234.513 58.7305 234.416 59.0117 234.223 59.3633C234.047 59.7148 233.704 60.0928 233.195 60.4971C232.702 60.8838 232.14 61.2266 231.507 61.5254C228.009 63.1777 225.627 62.791 224.362 60.3652C224.098 59.8906 223.913 59.3193 223.808 58.6514ZM223.729 55.1973C223.729 52.666 223.746 50.1523 223.781 47.6562C220.125 47.7969 217.638 48.0342 216.32 48.3682C215.019 48.6846 214.078 48.9922 213.498 49.291C212.918 49.5898 212.461 49.9414 212.127 50.3457C211.582 51.0137 211.31 52.0244 211.31 53.3779C211.31 54.7139 211.784 55.7861 212.734 56.5947C213.683 57.3857 215.045 57.7812 216.821 57.7812C219.334 57.7812 221.637 56.9199 223.729 55.1973ZM251.718 62.1318C251.366 62.0439 250.804 62 250.031 62H241.619C239.932 62 238.851 61.7012 238.376 61.1035C238.183 60.875 238.086 60.6113 238.086 60.3125C238.086 59.5742 238.227 59.0293 238.508 58.6777C238.93 58.8184 239.405 58.8887 239.932 58.8887C240.477 58.8887 240.881 58.6689 241.145 58.2295C241.426 57.79 241.558 56.9727 241.54 55.7773V38.5332C241.54 36.8809 241.233 35.8525 240.617 35.4482C240.371 35.29 240.046 35.2109 239.642 35.2109C239.238 35.2109 238.912 35.2725 238.666 35.3955C238.438 35.5186 238.244 35.6064 238.086 35.6592C237.946 35.7119 237.823 35.7119 237.717 35.6592C237.612 35.5889 237.506 35.4922 237.401 35.3691C237.137 35.0879 237.005 34.7979 237.005 34.499C237.005 34.1826 237.111 33.8574 237.322 33.5234C237.55 33.1719 237.91 32.7764 238.403 32.3369C238.895 31.8799 239.457 31.4668 240.09 31.0977C241.514 30.2715 242.938 29.8584 244.362 29.8584C245.996 29.8584 246.963 30.9395 247.262 33.1016C247.35 33.7344 247.403 34.3848 247.42 35.0527C250.039 32.8555 252.887 31.291 255.963 30.3594C257.071 30.0254 258.187 29.8584 259.312 29.8584C260.454 29.8584 261.535 30.0078 262.555 30.3066C263.592 30.6055 264.489 31.0889 265.244 31.7568C266.844 33.1631 267.644 35.3604 267.644 38.3486V56.2256C267.697 57.5967 268.206 58.4404 269.173 58.7568C269.437 58.8447 269.762 58.9238 270.149 58.9941C270.535 59.0645 270.878 59.1523 271.177 59.2578C271.493 59.3457 271.74 59.4512 271.915 59.5742C272.214 59.8027 272.364 60.1719 272.364 60.6816C272.364 61.2969 272.223 61.7803 271.942 62.1318C271.59 62.0439 271.028 62 270.254 62H261.843C260.156 62 259.074 61.7012 258.6 61.1035C258.407 60.875 258.31 60.6113 258.31 60.3125C258.31 59.5742 258.45 59.0293 258.732 58.6777C259.154 58.8184 259.54 58.8887 259.892 58.8887C260.261 58.8887 260.569 58.8447 260.815 58.7568C261.061 58.6514 261.254 58.4844 261.395 58.2559C261.641 57.834 261.764 57.0078 261.764 55.7773V40.2207C261.764 37.2324 260.876 35.5625 259.101 35.2109C258.556 35.1055 257.87 35.0527 257.044 35.0527C256.236 35.0527 255.339 35.1758 254.355 35.4219C253.37 35.668 252.448 35.9844 251.586 36.3711C249.934 37.1094 248.545 38.041 247.42 39.166V56.2256C247.473 57.5967 247.974 58.4404 248.923 58.7568C249.204 58.8447 249.53 58.9238 249.899 58.9941C250.285 59.0645 250.637 59.1523 250.953 59.2578C251.27 59.3457 251.516 59.4512 251.692 59.5742C251.991 59.8027 252.14 60.1719 252.14 60.6816C252.14 61.2969 251.999 61.7803 251.718 62.1318ZM277.308 35.7383C277.308 34.4727 277.721 33.4268 278.547 32.6006C279.391 31.7568 280.428 31.335 281.659 31.335C283.662 31.335 285.042 32.2139 285.798 33.9717C286.027 34.5166 286.141 35.1055 286.141 35.7383C286.141 36.9688 285.719 38.0146 284.875 38.876C284.032 39.7021 282.959 40.1152 281.659 40.1152C280.428 40.1152 279.391 39.7021 278.547 38.876C277.721 38.0322 277.308 36.9863 277.308 35.7383ZM281.289 53.5889C284.541 53.5889 286.167 55.4434 286.167 59.1523C286.167 63.459 284.735 67.1504 281.869 70.2266C281.096 71.0703 280.419 71.6328 279.839 71.9141C279.189 71.9141 278.6 71.5889 278.073 70.9385C277.914 70.7451 277.835 70.543 277.835 70.332C277.941 70.1738 278.134 69.9014 278.415 69.5146C278.714 69.1279 279.022 68.6445 279.338 68.0645C280.112 66.5527 280.498 64.9883 280.498 63.3711C280.498 61.1914 279.435 60.0225 277.308 59.8643C277.062 59.2842 276.939 58.6865 276.939 58.0713C276.939 57.4385 277.035 56.8672 277.229 56.3574C277.44 55.8301 277.739 55.3643 278.125 54.96C278.969 54.0459 280.024 53.5889 281.289 53.5889Z" fill="#D5668A"/>
<defs>
<filter id="filter0_dd" x="255" y="9" width="53" height="53" filterUnits="userSpaceOnUse" color-interpolation-filters="sRGB">
<feFlood flood-opacity="0" result="BackgroundImageFix"/>
<feColorMatrix in="SourceAlpha" type="matrix" values="0 0 0 0 0 0 0 0 0 0 0 0 0 0 0 0 0 0 127 0"/>
<feOffset dx="4" dy="4"/>
<feGaussianBlur stdDeviation="8"/>
<feColorMatrix type="matrix" values="0 0 0 0 0.835294 0 0 0 0 0.4 0 0 0 0 0.541176 0 0 0 0.5 0"/>
<feBlend mode="normal" in2="BackgroundImageFix" result="effect1_dropShadow"/>
<feColorMatrix in="SourceAlpha" type="matrix" values="0 0 0 0 0 0 0 0 0 0 0 0 0 0 0 0 0 0 127 0"/>
<feOffset dx="-4" dy="-4"/>
<feGaussianBlur stdDeviation="8"/>
<feColorMatrix type="matrix" values="0 0 0 0 1 0 0 0 0 1 0 0 0 0 1 0 0 0 1 0"/>
<feBlend mode="normal" in2="effect1_dropShadow" result="effect2_dropShadow"/>
<feBlend mode="normal" in="SourceGraphic" in2="effect2_dropShadow" result="shape"/>
</filter>
<filter id="filter1_dd" x="263.719" y="41.0312" width="42.9375" height="53.7188" filterUnits="userSpaceOnUse" color-interpolation-filters="sRGB">
<feFlood flood-opacity="0" result="BackgroundImageFix"/>
<feColorMatrix in="SourceAlpha" type="matrix" values="0 0 0 0 0 0 0 0 0 0 0 0 0 0 0 0 0 0 127 0"/>
<feOffset dx="4" dy="4"/>
<feGaussianBlur stdDeviation="8"/>
<feColorMatrix type="matrix" values="0 0 0 0 0.835294 0 0 0 0 0.4 0 0 0 0 0.541176 0 0 0 0.5 0"/>
<feBlend mode="normal" in2="BackgroundImageFix" result="effect1_dropShadow"/>
<feColorMatrix in="SourceAlpha" type="matrix" values="0 0 0 0 0 0 0 0 0 0 0 0 0 0 0 0 0 0 127 0"/>
<feOffset dx="4" dy="4"/>
<feGaussianBlur stdDeviation="8"/>
<feColorMatrix type="matrix" values="0 0 0 0 1 0 0 0 0 1 0 0 0 0 1 0 0 0 1 0"/>
<feBlend mode="normal" in2="effect1_dropShadow" result="effect2_dropShadow"/>
<feBlend mode="normal" in="SourceGraphic" in2="effect2_dropShadow" result="shape"/>
</filter>
</defs>
</svg>
