<svg width="95" height="83" viewBox="0 0 95 83" fill="none" xmlns="http://www.w3.org/2000/svg">
<g filter="url(#filter0_dd)">
<path d="M24.4489 37.8468C26.5234 37.3719 28.7226 38.2601 29.9144 40.0543L33.831 45.95C36.9082 50.5824 43.6148 51.0213 46.9746 46.8102L66.6946 22.0936C67.2451 21.4037 68.0197 20.9205 68.8973 20.7196C72.7085 19.8472 75.6323 24.2777 73.2018 27.2425L46.4699 59.8523C43.3424 63.6674 37.3417 63.6113 34.0112 59.7357L21.969 45.7221C19.544 42.9002 20.8779 38.6642 24.4489 37.8468Z" fill="#EBF2FA"/>
</g>
<g filter="url(#filter1_ii)">
<path d="M27.861 35.8085C29.5606 35.4195 31.3604 36.1651 32.3095 37.6515L38.5465 47.4189C40.0875 49.8321 43.5718 50.0396 45.2324 47.817L64.7326 21.7174C65.2392 21.0394 65.9764 20.5634 66.8182 20.3707C70.2531 19.5844 72.9339 23.5188 70.8294 26.2579L45.2859 59.5038C43.7302 61.5287 40.5955 61.5088 38.9196 59.4635L24.8555 42.2999C22.9819 40.0134 24.0796 36.6741 26.9185 36.0243L27.861 35.8085Z" fill="#03A9F4"/>
</g>
<defs>
<filter id="filter0_dd" x="0.73877" y="0.60791" width="93.3519" height="82.0705" filterUnits="userSpaceOnUse" color-interpolation-filters="sRGB">
<feFlood flood-opacity="0" result="BackgroundImageFix"/>
<feColorMatrix in="SourceAlpha" type="matrix" values="0 0 0 0 0 0 0 0 0 0 0 0 0 0 0 0 0 0 127 0"/>
<feOffset dx="4" dy="4"/>
<feGaussianBlur stdDeviation="8"/>
<feColorMatrix type="matrix" values="0 0 0 0 0.372549 0 0 0 0 0.615686 0 0 0 0 0.905882 0 0 0 0.48 0"/>
<feBlend mode="normal" in2="BackgroundImageFix" result="effect1_dropShadow"/>
<feColorMatrix in="SourceAlpha" type="matrix" values="0 0 0 0 0 0 0 0 0 0 0 0 0 0 0 0 0 0 127 0"/>
<feOffset dx="-4" dy="-4"/>
<feGaussianBlur stdDeviation="8"/>
<feColorMatrix type="matrix" values="0 0 0 0 1 0 0 0 0 1 0 0 0 0 1 0 0 0 1 0"/>
<feBlend mode="normal" in2="effect1_dropShadow" result="effect2_dropShadow"/>
<feBlend mode="normal" in="SourceGraphic" in2="effect2_dropShadow" result="shape"/>
</filter>
<filter id="filter1_ii" x="22.9268" y="16.2686" width="48.6472" height="44.7413" filterUnits="userSpaceOnUse" color-interpolation-filters="sRGB">
<feFlood flood-opacity="0" result="BackgroundImageFix"/>
<feBlend mode="normal" in="SourceGraphic" in2="BackgroundImageFix" result="shape"/>
<feColorMatrix in="SourceAlpha" type="matrix" values="0 0 0 0 0 0 0 0 0 0 0 0 0 0 0 0 0 0 127 0" result="hardAlpha"/>
<feOffset dx="-1"/>
<feGaussianBlur stdDeviation="8"/>
<feComposite in2="hardAlpha" operator="arithmetic" k2="-1" k3="1"/>
<feColorMatrix type="matrix" values="0 0 0 0 0.372549 0 0 0 0 0.615686 0 0 0 0 0.905882 0 0 0 0.48 0"/>
<feBlend mode="normal" in2="shape" result="effect1_innerShadow"/>
<feColorMatrix in="SourceAlpha" type="matrix" values="0 0 0 0 0 0 0 0 0 0 0 0 0 0 0 0 0 0 127 0" result="hardAlpha"/>
<feOffset dy="-4"/>
<feGaussianBlur stdDeviation="2.5"/>
<feComposite in2="hardAlpha" operator="arithmetic" k2="-1" k3="1"/>
<feColorMatrix type="matrix" values="0 0 0 0 1 0 0 0 0 1 0 0 0 0 1 0 0 0 1 0"/>
<feBlend mode="normal" in2="effect1_innerShadow" result="effect2_innerShadow"/>
</filter>
</defs>
</svg>
