<svg width="1234" height="991" viewBox="0 0 1234 991" fill="none" xmlns="http://www.w3.org/2000/svg">
<g clip-path="url(#clip0)">
<rect width="1248" height="991" fill="#EBF2FA"/>
<g filter="url(#filter0_dd)">
<path d="M1440.92 71C795.022 313.532 -109.232 830.291 1440.92 957.075V71Z" fill="#EBF2FA"/>
</g>
<g filter="url(#filter1_dd)">
<path d="M1619.62 133.41C973.727 375.942 69.4727 769.511 1619.62 896.295V133.41Z" fill="#EBF2FA"/>
</g>
<g filter="url(#filter2_dd)">
<path d="M1790.29 180.89C1144.4 393.029 240.142 737.277 1790.29 848.173V180.89Z" fill="#EBF2FA"/>
</g>
<g filter="url(#filter3_dd)">
<path d="M1653.94 288C1240.45 442.209 661.566 692.451 1653.94 773.063V288Z" fill="#EBF2FA"/>
</g>
<circle r="2.56647" transform="matrix(-1 0 0 1 827.867 685.202)" fill="#5F9DE7"/>
<circle r="2.56647" transform="matrix(-1 0 0 1 585.335 109.029)" fill="#5F9DE7"/>
<circle r="2.56647" transform="matrix(-1 0 0 1 265.809 786.578)" fill="#5F9DE7"/>
<circle r="2.56647" transform="matrix(-1 0 0 1 1065.27 931.584)" fill="#5F9DE7"/>
<circle r="2.56647" transform="matrix(-1 0 0 1 845.832 229.653)" fill="#5F9DE7"/>
<circle r="2.56647" transform="matrix(-1 0 0 1 328.566 444.566)" fill="#5F9DE7"/>
<circle r="2.56647" transform="matrix(-1 0 0 1 735.474 370.809)" fill="#5F9DE7"/>
<circle cx="751.514" cy="733.323" r="1.92485" fill="#5F9DE7"/>
<circle cx="1012.01" cy="823.15" r="1.92485" fill="#5F9DE7"/>
<circle cx="754.08" cy="811.601" r="4.49133" fill="#5F9DE7"/>
<circle cx="1004.31" cy="621.682" r="3.20809" fill="#5F9DE7"/>
<circle cx="1155.73" cy="288.04" r="4.49133" fill="#5F9DE7"/>
<rect x="1031.9" y="422.467" width="1.94117" height="1.94117" rx="0.265094" transform="rotate(-24.4476 1031.9 422.467)" fill="#5F9DE7"/>
<rect x="648.213" y="810.004" width="3.89396" height="3.89396" rx="0.531777" transform="rotate(-24.4476 648.213 810.004)" fill="#5F9DE7"/>
<rect x="168.283" y="182.502" width="3.89396" height="3.89396" rx="0.531777" transform="rotate(-24.4476 168.283 182.502)" fill="#5F9DE7"/>
<rect x="789.067" y="480.567" width="3.37824" height="3.37824" rx="0.481997" transform="rotate(35.3063 789.067 480.567)" fill="#5F9DE7"/>
<rect x="884.994" y="778.789" width="4.02097" height="4.02097" rx="0.619105" transform="rotate(30.4542 884.994 778.789)" fill="#5F9DE7"/>
<path d="M849.655 593.618C849.785 593.861 849.744 594.159 849.553 594.358L847.5 596.496C847.31 596.695 847.013 596.748 846.766 596.628L844.098 595.336C843.85 595.216 843.708 594.951 843.745 594.678L844.149 591.742C844.186 591.469 844.395 591.252 844.666 591.203L847.584 590.68C847.854 590.631 848.126 590.762 848.256 591.005L849.655 593.618Z" fill="#5F9DE7"/>
<path d="M1153.11 580.674C1153.2 580.777 1153.21 580.926 1153.14 581.043L1152.38 582.3C1152.31 582.416 1152.17 582.474 1152.04 582.443L1150.61 582.106C1150.47 582.075 1150.38 581.961 1150.37 581.825L1150.24 580.36C1150.23 580.224 1150.31 580.096 1150.44 580.043L1151.79 579.475C1151.92 579.422 1152.06 579.456 1152.15 579.56L1153.11 580.674Z" fill="#5F9DE7"/>
<path d="M1007.19 254.684C1007.46 254.683 1007.71 254.859 1007.79 255.12L1008.72 257.935C1008.81 258.196 1008.72 258.483 1008.5 258.646L1006.11 260.4C1005.88 260.563 1005.58 260.564 1005.36 260.404L1002.95 258.673C1002.73 258.512 1002.64 258.226 1002.72 257.964L1003.62 255.14C1003.71 254.878 1003.95 254.7 1004.22 254.699L1007.19 254.684Z" fill="#5F9DE7"/>
<path d="M1214.32 684.543C1214.42 684.71 1214.41 684.927 1214.28 685.081L1212.93 686.74C1212.8 686.894 1212.59 686.949 1212.41 686.877L1210.41 686.101C1210.23 686.029 1210.11 685.846 1210.12 685.647L1210.24 683.509C1210.25 683.31 1210.39 683.141 1210.58 683.091L1212.65 682.545C1212.85 682.495 1213.05 682.574 1213.16 682.741L1214.32 684.543Z" fill="#5F9DE7"/>
<path d="M1235.6 814.175C1235.88 814.174 1236.12 814.35 1236.21 814.611L1237.14 817.426C1237.23 817.687 1237.13 817.974 1236.91 818.137L1234.52 819.891C1234.3 820.054 1234 820.055 1233.78 819.895L1231.37 818.164C1231.15 818.004 1231.05 817.717 1231.14 817.455L1232.04 814.632C1232.12 814.37 1232.36 814.191 1232.64 814.19L1235.6 814.175Z" fill="#5F9DE7"/>
<path d="M934.043 945.065C934.318 945.064 934.563 945.24 934.649 945.501L935.579 948.316C935.665 948.577 935.573 948.864 935.352 949.027L932.962 950.781C932.74 950.944 932.439 950.946 932.216 950.785L929.809 949.054C929.586 948.894 929.491 948.608 929.575 948.345L930.477 945.522C930.561 945.26 930.804 945.081 931.079 945.08L934.043 945.065Z" fill="#5F9DE7"/>
<path d="M629.217 584.941C629.432 584.94 629.623 585.077 629.69 585.281L630.415 587.476C630.482 587.68 630.411 587.904 630.238 588.031L628.374 589.399C628.201 589.526 627.966 589.527 627.792 589.402L625.915 588.052C625.741 587.927 625.667 587.704 625.733 587.499L626.436 585.297C626.501 585.093 626.691 584.954 626.905 584.953L629.217 584.941Z" fill="#5F9DE7"/>
<path d="M658.315 689.801C658.594 689.652 658.922 689.888 658.87 690.2L658.169 694.363C658.122 694.641 657.8 694.773 657.571 694.609L654.549 692.435C654.32 692.27 654.343 691.923 654.592 691.79L658.315 689.801Z" fill="#5F9DE7"/>
<g filter="url(#filter4_dd)">
<circle cx="913" cy="459" r="35" fill="#EBF2FA"/>
</g>
<g filter="url(#filter5_dd)">
<ellipse cx="1080.69" cy="128.036" rx="29.6856" ry="32.036" fill="#EBF2FA"/>
</g>
<circle cx="1081.45" cy="128.455" r="22.455" fill="#D5668A"/>
<circle cx="914.612" cy="460.903" r="30" transform="rotate(18.3001 914.612 460.903)" fill="#D5668A"/>
<circle r="2.56647" transform="matrix(-1 0 0 1 845.832 229.653)" fill="#5F9DE7"/>
<path d="M923.191 432.215C907.801 427.126 891.351 435.02 886.111 450.864C883.476 458.831 883.558 464.635 886.889 472.336C888.154 468.512 932.849 437.834 932.849 437.834C932.849 437.834 931.386 434.926 923.191 432.215Z" fill="#EBF2FA"/>
</g>
<defs>
<filter id="filter0_dd" x="565" y="51" width="895.918" height="926.075" filterUnits="userSpaceOnUse" color-interpolation-filters="sRGB">
<feFlood flood-opacity="0" result="BackgroundImageFix"/>
<feColorMatrix in="SourceAlpha" type="matrix" values="0 0 0 0 0 0 0 0 0 0 0 0 0 0 0 0 0 0 127 0"/>
<feOffset dx="4" dy="4"/>
<feGaussianBlur stdDeviation="8"/>
<feColorMatrix type="matrix" values="0 0 0 0 0.372549 0 0 0 0 0.615686 0 0 0 0 0.905882 0 0 0 0.48 0"/>
<feBlend mode="normal" in2="BackgroundImageFix" result="effect1_dropShadow"/>
<feColorMatrix in="SourceAlpha" type="matrix" values="0 0 0 0 0 0 0 0 0 0 0 0 0 0 0 0 0 0 127 0"/>
<feOffset dx="-4" dy="-4"/>
<feGaussianBlur stdDeviation="8"/>
<feColorMatrix type="matrix" values="0 0 0 0 1 0 0 0 0 1 0 0 0 0 1 0 0 0 1 0"/>
<feBlend mode="normal" in2="effect1_dropShadow" result="effect2_dropShadow"/>
<feBlend mode="normal" in="SourceGraphic" in2="effect2_dropShadow" result="shape"/>
</filter>
<filter id="filter1_dd" x="743.705" y="113.41" width="895.918" height="802.884" filterUnits="userSpaceOnUse" color-interpolation-filters="sRGB">
<feFlood flood-opacity="0" result="BackgroundImageFix"/>
<feColorMatrix in="SourceAlpha" type="matrix" values="0 0 0 0 0 0 0 0 0 0 0 0 0 0 0 0 0 0 127 0"/>
<feOffset dx="4" dy="4"/>
<feGaussianBlur stdDeviation="8"/>
<feColorMatrix type="matrix" values="0 0 0 0 0.372549 0 0 0 0 0.615686 0 0 0 0 0.905882 0 0 0 0.48 0"/>
<feBlend mode="normal" in2="BackgroundImageFix" result="effect1_dropShadow"/>
<feColorMatrix in="SourceAlpha" type="matrix" values="0 0 0 0 0 0 0 0 0 0 0 0 0 0 0 0 0 0 127 0"/>
<feOffset dx="-4" dy="-4"/>
<feGaussianBlur stdDeviation="8"/>
<feColorMatrix type="matrix" values="0 0 0 0 1 0 0 0 0 1 0 0 0 0 1 0 0 0 1 0"/>
<feBlend mode="normal" in2="effect1_dropShadow" result="effect2_dropShadow"/>
<feBlend mode="normal" in="SourceGraphic" in2="effect2_dropShadow" result="shape"/>
</filter>
<filter id="filter2_dd" x="914.375" y="160.89" width="895.919" height="707.283" filterUnits="userSpaceOnUse" color-interpolation-filters="sRGB">
<feFlood flood-opacity="0" result="BackgroundImageFix"/>
<feColorMatrix in="SourceAlpha" type="matrix" values="0 0 0 0 0 0 0 0 0 0 0 0 0 0 0 0 0 0 127 0"/>
<feOffset dx="4" dy="4"/>
<feGaussianBlur stdDeviation="8"/>
<feColorMatrix type="matrix" values="0 0 0 0 0.372549 0 0 0 0 0.615686 0 0 0 0 0.905882 0 0 0 0.48 0"/>
<feBlend mode="normal" in2="BackgroundImageFix" result="effect1_dropShadow"/>
<feColorMatrix in="SourceAlpha" type="matrix" values="0 0 0 0 0 0 0 0 0 0 0 0 0 0 0 0 0 0 127 0"/>
<feOffset dx="-4" dy="-4"/>
<feGaussianBlur stdDeviation="8"/>
<feColorMatrix type="matrix" values="0 0 0 0 1 0 0 0 0 1 0 0 0 0 1 0 0 0 1 0"/>
<feBlend mode="normal" in2="effect1_dropShadow" result="effect2_dropShadow"/>
<feBlend mode="normal" in="SourceGraphic" in2="effect2_dropShadow" result="shape"/>
</filter>
<filter id="filter3_dd" x="1086" y="268" width="587.942" height="525.063" filterUnits="userSpaceOnUse" color-interpolation-filters="sRGB">
<feFlood flood-opacity="0" result="BackgroundImageFix"/>
<feColorMatrix in="SourceAlpha" type="matrix" values="0 0 0 0 0 0 0 0 0 0 0 0 0 0 0 0 0 0 127 0"/>
<feOffset dx="4" dy="4"/>
<feGaussianBlur stdDeviation="8"/>
<feColorMatrix type="matrix" values="0 0 0 0 0.372549 0 0 0 0 0.615686 0 0 0 0 0.905882 0 0 0 0.48 0"/>
<feBlend mode="normal" in2="BackgroundImageFix" result="effect1_dropShadow"/>
<feColorMatrix in="SourceAlpha" type="matrix" values="0 0 0 0 0 0 0 0 0 0 0 0 0 0 0 0 0 0 127 0"/>
<feOffset dx="-4" dy="-4"/>
<feGaussianBlur stdDeviation="8"/>
<feColorMatrix type="matrix" values="0 0 0 0 1 0 0 0 0 1 0 0 0 0 1 0 0 0 1 0"/>
<feBlend mode="normal" in2="effect1_dropShadow" result="effect2_dropShadow"/>
<feBlend mode="normal" in="SourceGraphic" in2="effect2_dropShadow" result="shape"/>
</filter>
<filter id="filter4_dd" x="858" y="404" width="110" height="110" filterUnits="userSpaceOnUse" color-interpolation-filters="sRGB">
<feFlood flood-opacity="0" result="BackgroundImageFix"/>
<feColorMatrix in="SourceAlpha" type="matrix" values="0 0 0 0 0 0 0 0 0 0 0 0 0 0 0 0 0 0 127 0"/>
<feOffset dx="4" dy="4"/>
<feGaussianBlur stdDeviation="8"/>
<feColorMatrix type="matrix" values="0 0 0 0 0.372549 0 0 0 0 0.615686 0 0 0 0 0.905882 0 0 0 0.48 0"/>
<feBlend mode="normal" in2="BackgroundImageFix" result="effect1_dropShadow"/>
<feColorMatrix in="SourceAlpha" type="matrix" values="0 0 0 0 0 0 0 0 0 0 0 0 0 0 0 0 0 0 127 0"/>
<feOffset dx="-4" dy="-4"/>
<feGaussianBlur stdDeviation="8"/>
<feColorMatrix type="matrix" values="0 0 0 0 1 0 0 0 0 1 0 0 0 0 1 0 0 0 1 0"/>
<feBlend mode="normal" in2="effect1_dropShadow" result="effect2_dropShadow"/>
<feBlend mode="normal" in="SourceGraphic" in2="effect2_dropShadow" result="shape"/>
</filter>
<filter id="filter5_dd" x="1031" y="76" width="99.3712" height="104.072" filterUnits="userSpaceOnUse" color-interpolation-filters="sRGB">
<feFlood flood-opacity="0" result="BackgroundImageFix"/>
<feColorMatrix in="SourceAlpha" type="matrix" values="0 0 0 0 0 0 0 0 0 0 0 0 0 0 0 0 0 0 127 0"/>
<feOffset dx="4" dy="4"/>
<feGaussianBlur stdDeviation="8"/>
<feColorMatrix type="matrix" values="0 0 0 0 0.372549 0 0 0 0 0.615686 0 0 0 0 0.905882 0 0 0 0.48 0"/>
<feBlend mode="normal" in2="BackgroundImageFix" result="effect1_dropShadow"/>
<feColorMatrix in="SourceAlpha" type="matrix" values="0 0 0 0 0 0 0 0 0 0 0 0 0 0 0 0 0 0 127 0"/>
<feOffset dx="-4" dy="-4"/>
<feGaussianBlur stdDeviation="8"/>
<feColorMatrix type="matrix" values="0 0 0 0 1 0 0 0 0 1 0 0 0 0 1 0 0 0 1 0"/>
<feBlend mode="normal" in2="effect1_dropShadow" result="effect2_dropShadow"/>
<feBlend mode="normal" in="SourceGraphic" in2="effect2_dropShadow" result="shape"/>
</filter>
<clipPath id="clip0">
<rect width="1248" height="991" fill="white"/>
</clipPath>
</defs>
</svg>
