<svg width="330" height="269" viewBox="0 0 330 269" fill="none" xmlns="http://www.w3.org/2000/svg">
<path d="M327 141.259L250 96.0038V123.853L315.939 162.581L250 200.004V172.59L275.95 156.054" stroke="#D5668A" stroke-width="11"/>
<path d="M3 139.518L77 96.0038V122.782L13.6298 160.021L77 196.004V169.644L52.0608 153.744" stroke="#D5668A" stroke-width="11"/>
<path d="M237.016 67.1685L122.415 218.605L93.1371 237.255L96.7351 214.538L219.164 55.2288" stroke="#D5668A" stroke-width="11"/>
<g clip-path="url(#clip0)">
<path d="M208.568 64.655L227.113 77.8959C227.719 78.3283 228.451 78.1546 228.741 77.5108L230.693 73.1902L213.371 60.8232L208.726 63.2213C208.034 63.5778 207.962 64.2258 208.568 64.655Z" fill="#D5668A"/>
<path d="M231.484 72.0635L247.27 69.5419C248.314 69.3375 249.177 69.0691 249.379 67.8643L249.379 67.861C252.139 49.7967 265.314 31.2502 265.314 31.2502L261.596 28.5961L246.417 44.056C247.098 45.0581 247.337 46.2441 247.091 47.4041C246.846 48.5642 246.132 49.6238 245.075 50.3955C244.019 51.1673 242.689 51.6016 241.319 51.6216C239.949 51.6416 238.629 51.246 237.59 50.5049C236.552 49.7637 235.864 48.7246 235.646 47.5713C235.428 46.418 235.696 45.2247 236.401 44.2023C237.106 43.1799 238.204 42.3943 239.5 41.9843C240.796 41.5743 242.207 41.5663 243.484 41.9618L258.663 26.5019L254.945 23.8478C254.945 23.8478 235.851 38.1672 215.482 43.6601L215.478 43.6605C214.122 44.0384 213.964 44.8104 213.912 45.726L213.776 59.421L231.488 72.0664L231.484 72.0635Z" fill="#D5668A"/>
</g>
<defs>
<clipPath id="clip0">
<rect width="62" height="53" fill="white" transform="translate(271.297 74.3328) rotate(175)"/>
</clipPath>
</defs>
</svg>
